<svg width="64" height="64" viewBox="0 0 64 64" fill="none" xmlns="http://www.w3.org/2000/svg">
  <!-- Background circle with gradient -->
  <defs>
    <linearGradient id="bgGradient" x1="0%" y1="0%" x2="100%" y2="100%">
      <stop offset="0%" style="stop-color:#3b82f6;stop-opacity:1" />
      <stop offset="100%" style="stop-color:#1d4ed8;stop-opacity:1" />
    </linearGradient>
    <linearGradient id="nodeGradient" x1="0%" y1="0%" x2="100%" y2="100%">
      <stop offset="0%" style="stop-color:#fbbf24;stop-opacity:1" />
      <stop offset="100%" style="stop-color:#f59e0b;stop-opacity:1" />
    </linearGradient>
  </defs>
  
  <!-- Main background -->
  <circle cx="32" cy="32" r="30" fill="url(#bgGradient)" stroke="#1e40af" stroke-width="2"/>
  
  <!-- Repository/folder icon base -->
  <rect x="14" y="18" width="36" height="28" rx="3" fill="#f8fafc" stroke="#e2e8f0" stroke-width="1"/>
  <rect x="14" y="18" width="12" height="4" rx="2" fill="#e2e8f0"/>
  
  <!-- Network nodes representing code structure -->
  <circle cx="22" cy="28" r="3" fill="url(#nodeGradient)" stroke="#ffffff" stroke-width="1"/>
  <circle cx="42" cy="28" r="3" fill="#ef4444" stroke="#ffffff" stroke-width="1"/>
  <circle cx="32" cy="38" r="3" fill="#10b981" stroke="#ffffff" stroke-width="1"/>
  <circle cx="22" cy="40" r="2" fill="#8b5cf6" stroke="#ffffff" stroke-width="1"/>
  <circle cx="42" cy="40" r="2" fill="#f97316" stroke="#ffffff" stroke-width="1"/>
  
  <!-- Connection lines representing dependencies -->
  <line x1="22" y1="28" x2="32" y2="38" stroke="#64748b" stroke-width="1.5" opacity="0.7"/>
  <line x1="42" y1="28" x2="32" y2="38" stroke="#64748b" stroke-width="1.5" opacity="0.7"/>
  <line x1="32" y1="38" x2="22" y2="40" stroke="#64748b" stroke-width="1.5" opacity="0.7"/>
  <line x1="32" y1="38" x2="42" y2="40" stroke="#64748b" stroke-width="1.5" opacity="0.7"/>
  <line x1="22" y1="28" x2="42" y2="28" stroke="#64748b" stroke-width="1" opacity="0.5"/>
  
  <!-- Code brackets for programming aspect -->
  <path d="M16 24 L18 26 L16 28" stroke="#6366f1" stroke-width="1.5" fill="none" stroke-linecap="round"/>
  <path d="M48 24 L46 26 L48 28" stroke="#6366f1" stroke-width="1.5" fill="none" stroke-linecap="round"/>
</svg>
